<?xml version="1.0" encoding="UTF-8"?>
<svg id="Camada_2" data-name="Camada 2" xmlns="http://www.w3.org/2000/svg" xmlns:xlink="http://www.w3.org/1999/xlink" viewBox="0 0 853.25 699.79">
  <defs>
    <style>
      .cls-1 {
        fill: url(#linear-gradient-2);
      }

      .cls-2 {
        fill: #fff;
      }

      .cls-3 {
        fill: url(#linear-gradient-17);
      }

      .cls-4 {
        fill: #25221d;
      }

      .cls-5 {
        fill: url(#linear-gradient-15);
      }

      .cls-6 {
        fill: url(#linear-gradient-18);
      }

      .cls-7 {
        fill: url(#linear-gradient-28);
      }

      .cls-8 {
        fill: url(#linear-gradient-14);
      }

      .cls-9 {
        fill: url(#linear-gradient-20);
      }

      .cls-10 {
        fill: url(#linear-gradient-6);
      }

      .cls-11 {
        fill: url(#linear-gradient-35);
      }

      .cls-12 {
        fill: url(#linear-gradient-32);
      }

      .cls-13 {
        fill: url(#linear-gradient-11);
      }

      .cls-14 {
        fill: url(#linear-gradient-10);
      }

      .cls-15 {
        fill: url(#linear-gradient-16);
      }

      .cls-16 {
        fill: url(#linear-gradient-31);
      }

      .cls-17 {
        fill: url(#linear-gradient-21);
      }

      .cls-18 {
        fill: url(#linear-gradient-25);
      }

      .cls-19 {
        fill: url(#linear-gradient-5);
      }

      .cls-20 {
        clip-path: url(#clippath);
      }

      .cls-21 {
        fill: url(#linear-gradient-34);
      }

      .cls-22 {
        fill: none;
      }

      .cls-23 {
        fill: url(#linear-gradient-7);
      }

      .cls-24 {
        fill: url(#linear-gradient-24);
      }

      .cls-25 {
        fill: url(#linear-gradient-9);
      }

      .cls-26 {
        fill: url(#linear-gradient-22);
      }

      .cls-27 {
        fill: url(#linear-gradient-3);
      }

      .cls-28 {
        fill: url(#linear-gradient);
      }

      .cls-29 {
        fill: url(#linear-gradient-27);
      }

      .cls-30 {
        fill: url(#linear-gradient-33);
      }

      .cls-31 {
        fill: url(#linear-gradient-29);
      }

      .cls-32 {
        fill: url(#linear-gradient-30);
      }

      .cls-33 {
        fill: url(#linear-gradient-23);
      }

      .cls-34 {
        fill: url(#linear-gradient-19);
      }

      .cls-35 {
        fill: url(#linear-gradient-4);
      }

      .cls-36 {
        fill: url(#linear-gradient-8);
      }

      .cls-37 {
        fill: url(#linear-gradient-12);
      }

      .cls-38 {
        fill: url(#linear-gradient-13);
      }

      .cls-39 {
        fill: url(#linear-gradient-26);
      }
    </style>
    <linearGradient id="linear-gradient" x1="21.47" y1="210.67" x2="845.59" y2="210.67" gradientUnits="userSpaceOnUse">
      <stop offset="0" stop-color="#a59a87"/>
      <stop offset=".03" stop-color="#9c907b"/>
      <stop offset="1" stop-color="#bdb1a3"/>
    </linearGradient>
    <linearGradient id="linear-gradient-2" x1="21.47" y1="367.5" x2="845.59" y2="367.5" xlink:href="#linear-gradient"/>
    <linearGradient id="linear-gradient-3" x1="21.47" y1="334.97" x2="845.58" y2="334.97" xlink:href="#linear-gradient"/>
    <linearGradient id="linear-gradient-4" x1="21.47" y1="96.18" x2="845.58" y2="96.18" xlink:href="#linear-gradient"/>
    <linearGradient id="linear-gradient-5" x1="21.47" y1="238.34" x2="845.59" y2="238.34" xlink:href="#linear-gradient"/>
    <linearGradient id="linear-gradient-6" x1="21.47" y1="255.21" x2="845.58" y2="255.21" xlink:href="#linear-gradient"/>
    <linearGradient id="linear-gradient-7" x1="21.47" y1="317.54" x2="845.59" y2="317.54" xlink:href="#linear-gradient"/>
    <linearGradient id="linear-gradient-8" x1="21.47" y1="257.2" x2="845.59" y2="257.2" xlink:href="#linear-gradient"/>
    <linearGradient id="linear-gradient-9" x1="21.47" y1="309.98" x2="845.59" y2="309.98" xlink:href="#linear-gradient"/>
    <linearGradient id="linear-gradient-10" x1="21.46" y1="302.15" x2="845.59" y2="302.15" xlink:href="#linear-gradient"/>
    <linearGradient id="linear-gradient-11" x1="21.48" y1="258.56" x2="845.58" y2="258.56" xlink:href="#linear-gradient"/>
    <linearGradient id="linear-gradient-12" x1="21.46" y1="260.98" x2="845.59" y2="260.98" xlink:href="#linear-gradient"/>
    <linearGradient id="linear-gradient-13" x1="21.47" y1="290.98" x2="845.59" y2="290.98" xlink:href="#linear-gradient"/>
    <linearGradient id="linear-gradient-14" x1="21.47" y1="280.67" x2="845.59" y2="280.67" xlink:href="#linear-gradient"/>
    <linearGradient id="linear-gradient-15" x1="21.47" y1="345.77" x2="845.59" y2="345.77" xlink:href="#linear-gradient"/>
    <linearGradient id="linear-gradient-16" x1="21.47" y1="351.58" x2="845.59" y2="351.58" xlink:href="#linear-gradient"/>
    <linearGradient id="linear-gradient-17" x1="21.47" y1="367.15" x2="845.59" y2="367.15" xlink:href="#linear-gradient"/>
    <linearGradient id="linear-gradient-18" x1="21.47" y1="392.1" x2="845.59" y2="392.1" xlink:href="#linear-gradient"/>
    <linearGradient id="linear-gradient-19" x1="21.48" y1="387.46" x2="281.72" y2="387.46" xlink:href="#linear-gradient"/>
    <linearGradient id="linear-gradient-20" x1="21.47" y1="358.16" x2="845.59" y2="358.16" xlink:href="#linear-gradient"/>
    <linearGradient id="linear-gradient-21" x1="21.47" y1="344.87" x2="845.58" y2="344.87" xlink:href="#linear-gradient"/>
    <linearGradient id="linear-gradient-22" x1="21.47" y1="358.1" x2="845.59" y2="358.1" xlink:href="#linear-gradient"/>
    <linearGradient id="linear-gradient-23" x1="21.47" y1="274.79" x2="845.59" y2="274.79" xlink:href="#linear-gradient"/>
    <linearGradient id="linear-gradient-24" x1="21.47" y1="343.69" x2="845.58" y2="343.69" xlink:href="#linear-gradient"/>
    <linearGradient id="linear-gradient-25" x1="21.46" y1="371.06" x2="845.6" y2="371.06" xlink:href="#linear-gradient"/>
    <linearGradient id="linear-gradient-26" x1="21.47" y1="361.78" x2="845.59" y2="361.78" xlink:href="#linear-gradient"/>
    <linearGradient id="linear-gradient-27" x1="21.47" y1="385.69" x2="845.59" y2="385.69" xlink:href="#linear-gradient"/>
    <linearGradient id="linear-gradient-28" x1="21.47" y1="318.87" x2="845.59" y2="318.87" xlink:href="#linear-gradient"/>
    <linearGradient id="linear-gradient-29" x1="21.47" y1="385.14" x2="845.59" y2="385.14" xlink:href="#linear-gradient"/>
    <linearGradient id="linear-gradient-30" x1="21.48" y1="386.13" x2="845.58" y2="386.13" xlink:href="#linear-gradient"/>
    <linearGradient id="linear-gradient-31" x1="21.47" y1="384.07" x2="845.58" y2="384.07" xlink:href="#linear-gradient"/>
    <linearGradient id="linear-gradient-32" x1="21.47" y1="384.67" x2="845.59" y2="384.67" xlink:href="#linear-gradient"/>
    <linearGradient id="linear-gradient-33" x1="21.47" y1="384.32" x2="845.58" y2="384.32" xlink:href="#linear-gradient"/>
    <linearGradient id="linear-gradient-34" x1="21.47" y1="399.21" x2="845.59" y2="399.21" xlink:href="#linear-gradient"/>
    <clipPath id="clippath">
      <rect class="cls-22" x="2.73" y="478.29" width="817.5" height="220.82"/>
    </clipPath>
    <linearGradient id="linear-gradient-35" x1="-81.21" y1="688.76" x2="951.47" y2="688.76" xlink:href="#linear-gradient"/>
  </defs>
  <g id="Camada_2-2" data-name="Camada 2">
    <g>
      <g>
        <path class="cls-2" d="m467.59,365.94l2.09-23.71s32.91-24.26,42.32-35.28c9.4-11.03,13.06-28.12,11.49-45.76-1.57-17.64-5.75-31.98-20.37-51.27-14.63-19.3-41.79-24.81-41.79-24.81,0,0-20.9-3.31-27.69-1.65-6.79,1.65-33.44,7.72-33.44,7.72,0,0-10.45,3.31-32.91,3.31s-95.08-2.76-95.08-2.76c0,0-7.84,0-9.93,8.82-2.09,8.82-5.75,46.31-6.79,58.44-1.04,12.13-1.04,30.32-1.04,30.32,0,0,0,5.51,6.79,8.82,6.79,3.31,68.44,15.99,68.44,15.99l57.47,12.68s13.06,6.62,15.67,11.03c2.61,4.41,3.13,9.92,3.13,9.92l-3.66,18.19h65.3Z"/>
        <path class="cls-2" d="m431.02,125.02s3.66,13.23,11.49,23.15c7.84,9.92,6.79,13.78,6.79,13.78l-15.15-6.06s-4.18-5.51-5.22-13.78c-1.04-8.27,2.09-17.09,2.09-17.09Z"/>
        <path class="cls-2" d="m499.98,137.7s-2.09,14.89-3.13,24.81c-1.04,9.92-1.04,25.91-1.04,25.91l-6.27-4.41-14.63-14.33-19.33-7.17s25.6-1.65,32.91-8.82c7.31-7.17,11.49-15.99,11.49-15.99Z"/>
        <path class="cls-2" d="m649.39,122.81h-20.9l-16.72-11.03s-8.36,4.96-6.27,9.37c2.09,4.41,8.36,11.58,8.36,11.58,0,0,7.31,2.76,7.84,14.33.52,11.58-3.13,35.28-3.13,35.28l-16.72,41.35s22.99-12.13,36.57-11.58c13.58.55,30.82-6.06,30.82-6.06,0,0-24.55-2.21-34.48-10.47-9.93-8.27-11.49-17.64-8.88-29.22,2.61-11.58,9.93-28.67,9.93-28.67l12.02-9.37,1.57-5.51Z"/>
        <path class="cls-2" d="m694.84,132.74s9.4,9.37,9.4,20.95-1.57,20.95-1.57,20.95c0,0,2.61-1.1,5.75-14.33,3.13-13.23,1.57-23.71,1.57-23.71l-3.13-8.82-12.02,4.96Z"/>
        <polygon class="cls-2" points="641.03 406.73 653.57 412.25 670.81 395.16 671.33 380.27 650.43 399.57 641.03 406.73"/>
        <path class="cls-2" d="m713.65,380.27l59.56-36.94,69.48-51.82s9.93-8.82,7.31-13.23c-2.61-4.41-6.27-6.06-6.27-6.06l-11.49,6.62s-115.46,86-118.07,87.66c-2.61,1.65-29.26,21.5-.52,13.78Z"/>
        <path class="cls-2" d="m183.91,336.72s8.88,11.03,7.84,19.3c-1.04,8.27-3.66,19.3-3.66,19.3,0,0-2.09,6.06-4.18,8.27-2.09,2.21-5.22,2.21-5.22,2.21l-126.43,11.03-23.51-.55s-10.45,2.21-12.02-4.41c-1.57-6.62-1.57-20.4-1.57-20.4l3.13-18.19,6.27-4.96,14.11-.55,145.23-11.03Z"/>
        <path class="cls-2" d="m190.18,336.17s3.13,7.72,3.13,11.58v3.86l20.9-2.76,31.87-14.88s-47.54,0-55.9,2.21Z"/>
        <path class="cls-2" d="m200.1,168.02s-12.54,7.72-20.37,25.91c-7.84,18.19-13.06,51.27-9.4,72.77,3.66,21.5,16.2,40.8,16.2,40.8,0,0,10.97,6.62,8.36-5.51-2.61-12.13-13.58-29.22-11.49-52.92,2.09-23.71,13.58-47.41,21.94-55.13,8.36-7.72,15.15-19.3,10.45-23.71-4.7-4.41-15.67-2.21-15.67-2.21Z"/>
        <path class="cls-28" d="m550.32,308.53c6.73,5.14,8.4,7.31,11.83-.13,6.07-13.15,9.06-27.81,15.52-40.97,10.64-21.66,22.67-42.5,46.6-48.38,13.4-3.29,27.39-3.11,40.81-6.28,28.29-6.67,43.15-32.97,47.33-61.57,1.05-7.17-1.32-18.82-3.75-21.11s-27.55-11.7-37.06-10.59c-9.51,1.11-32.29-.58-38.76-2.26-6.47-1.69-10.34-8.01-14.28-8.91-3.95-.9-13.24,1.13-14.73,6.46-1.5,5.32-.17,6.93,3.25,11.41,3.42,4.48,13.76,12.49,13.51,24.85-.25,12.36-3.82,35.95-8.79,46.14-4.97,10.2-21.9,32.49-28.52,41.67-4,4.71-6.19,10.8-9.21,16.06-3.53,6.16-8.53,11.44-13.05,16.91-7.31,8.85-15.85,18.37-26.95,19.05,4.38,6.82,9.91,12.81,16.23,17.64Zm154.71-175.11c1.14,4.39,1.85,8.91,2.12,13.45,0-.57.04-1.14.04-1.7l.09,6.13c0-1.48-.04-2.95-.13-4.43-.07,6.53-.34,13.06-.84,19.56.15-5.14.22-10.31-.53-15.39-.75-5.08-2.35-10.1-5.28-14.21,1.75-.71,3.32-1.9,4.53-3.42Zm-38.96-7.98c11.81-1.24,23.55,2.95,30.39,11.91,19.03,24.91-4.99,64.39-33.64,62.72-19.38-1.13-30.72-11.33-33.39-18.47-2.67-7.14.05-26.56,4.49-33.18,4.44-6.61,20.33-21.74,32.14-22.98Zm-56.16-2.95c-1.22-3.11,4.79-3.27,4.79-3.27,0,0,5.17,4.01,9.47,8.25,4.27,4.22,16.94,1.3,17.08,1.26-5.79,1.34-9.29,10.99-11.35,15.94,0,.02-.02.04-.03.06-3.54,8.56-5.51,17.74-7.45,26.83.74-5.32,1.48-10.65,2.22-15.97.88-6.37,1.65-13.64-1.81-19.39-3.13-5.2-10.69-8.04-12.92-13.72Zm11.52,60.64c-.88,12.48,20.83,22.58,29.7,23.98-14.82.88-29.49,4.68-43.01,11.14,6.63-9.73,12.47-23.1,13.32-35.12Z"/>
        <path class="cls-1" d="m539.14,375.5c4.19.35,7.85-2.95,8.18-7.37.33-4.42-2.79-8.28-6.98-8.63-4.19-.35-7.85,2.95-8.18,7.37-.33,4.42,2.79,8.28,6.98,8.63Z"/>
        <path class="cls-27" d="m565.47,371.23c-.19-1.95-.41-4.82-.81-8.45-.39-3.64-.85-8.05-1.51-13.11-.65-5.06-1.39-10.75-2.52-16.98-.3-1.56-.6-3.15-1.01-4.81l-.07-.31-.04-.16c-.02-.08.03.06-.06-.2l-.02-.07-.19-.58-.37-1.17c-.35-.84-.75-1.82-1.18-2.64-1.75-3.29-4.26-6.11-6.97-8.53-2.71-2.44-5.65-4.6-8.5-6.79-2.88-2.19-5.54-4.38-8.01-7.05-1.38-1.46-2.68-3.04-3.95-4.67-.33.65-.67,1.3-1.03,1.95-.73,1.29-1.48,2.54-2.25,3.77,1.01,1.16,2.03,2.33,3.11,3.42,2.8,2.84,5.96,5.35,8.99,7.38,3.03,2.09,5.92,4,8.48,6.09,2.58,2.06,4.72,4.36,6.28,6.85.39.63.65,1.17.99,1.82l.45,1.14.22.57.02.05.03.11.08.28c.46,1.46.86,2.98,1.24,4.47,1.46,6,2.68,11.59,3.75,16.55,1.05,4.96,1.97,9.29,2.72,12.86,1.52,7.14,2.39,11.22,2.39,11.22,0,0-.09-1.04-.26-2.99Z"/>
        <path class="cls-35" d="m445.49,161.25c5.96,1.3,11.54,3.43,17.46,4.37,3.63,1.4,15.24,6.58,19.92,16.75,2.88,1.28,5.68,2.8,8.41,4.48-.04-.54-.09-1.12-.13-1.62-1.24-16.36,1.57-29.14,1.57-29.14,0,0-4.45,10.04-13.17,11.26-6.74.94-13.62-.84-16.41-1.7,8.48,1.31,17.65.12,29.58-9.56,0,0,3.46-7.17,6.44-13.91-.93,3.14-1.87,6.84-2.56,11.06-.83,5.06-1.72,10.76-2.15,17.11-.43,5.7-.53,11.85-.39,18.28,1.77,1.19,3.51,2.42,5.2,3.73-.05-.62-.1-1.25-.15-1.86-.5-7.1-.86-13.8-.81-19.98.06-6.17.45-11.88.84-16.91.43-5.03,1.11-9.34,1.85-12.9.69-3.32,1.37-5.91,1.91-7.76.08-.25.16-.5.23-.72.04-.13.08-.29.12-.44.42-1.35.69-2.1.69-2.1,0,0-.14.27-.37.76,1.71-7.91,4.32-29.42,4.07-33.62-.27-4.58-1.58-11.84-8.59-16.98-7.01-5.14-17.5-13.17-22.66-26.61-5.16-13.44-6.83-23.99-15.29-34.45-8.46-10.46-16.31-20.88-18.34-18.44-2.03,2.43-2.18,4.37,4.35,15.97,6.53,11.6,19.84,23.12,20.39,32.27.55,9.15-3.76,17.25-9.71,22.61-5.95,5.36-26.15,19.93-29.71,34.59-3.56,14.66-2.23,29.73.15,39.04,2.38,9.31,2.71,13.23,17.26,16.4Zm11.89-76.41c26.1-16.01,45.58,12.89,40.99,38.41-3.43,19.05-17.73,34.85-39.2,28.08-33.4-10.52-27.09-50.98-1.79-66.5Zm-27.3,51.71s.32,3.93,4.22,9.46c3.9,5.53,13.31,11.52,13.31,11.52-1.42,2.48-11.12.37-14.51-3.81-3.38-4.19-3.03-17.16-3.03-17.16Z"/>
        <path class="cls-19" d="m248.13,247.08c1.38-17.85,10.53-58.28,10.53-58.28l-46.44-25.14c-6.25-3.38-13.81-2.2-18.91,2.89-10.06,10.05-25.22,30.58-31.24,66.75-4.44,31.38,7.09,58.48,15.24,73.02,4.12,7.36,12.68,10.54,20.21,7.39.13-.06.26-.11.4-.17,8.28-3.51,52.12-13.47,52.12-13.47,0,0-3.28-35.16-1.9-53.01Zm-69.76,24.23l-.19-2.41c1.71,7.13,3.93,14.13,6.63,20.91,1.06,2.66,2.21,5.44,1.95,8.31-4.24-8.33-7.1-17.45-8.38-26.81Zm27.96-92.31c-3.33,4.71-8.35,7.67-11.43,12.52-3.56,5.6-6.54,11.69-9.11,17.85-4.9,11.71-8.86,24.95-9.69,37.82,0,.13-.02.26-.02.38,0-.12.01-.24.02-.35,0,0,0-.02,0-.03.73-12.2,1.86-24.43,4.85-36.24,2.16-8.57,5.32-16.92,9.83-24.42,2.38-3.96,8.49-14.99,13.93-14.68,4.29.25,3.44,4.57,1.62,7.15Z"/>
        <path class="cls-10" d="m483.47,243.76c-.24,3.6-.56,7.34-.9,11.1-.34,3.81-.77,7.6-1.25,11.43-.44,3.83-.94,7.66-1.45,11.42-.52,3.76-1.03,7.47-1.53,11.05-.88,6.11-1.72,11.86-2.46,16.98.71-.39,1.44-.8,2.18-1.21.95-4.67,1.94-9.84,2.88-15.31.6-3.58,1.25-7.28,1.79-11.06.55-3.78,1.09-7.62,1.56-11.47.45-3.85.86-7.76,1.16-11.54.34-3.82.49-7.58.65-11.22.17-3.64.2-7.17.21-10.51.02-3.34-.06-6.5-.16-9.41-.2-5.83-.66-10.67-.99-14.04-.36-3.38-.7-5.29-.7-5.29,0,0,.08,1.94.12,5.33.07,3.39,0,8.22-.15,14.01-.16,5.79-.47,12.54-.97,19.75Z"/>
        <path class="cls-23" d="m473.51,322.24c-.47,3.36-.73,5.28-.73,5.28,0,0,.51-1.86,1.3-5.15.76-3.29,1.92-7.99,3.11-13.67.08-.37.16-.76.24-1.14-.66.3-1.3.57-1.94.85-.82,5.73-1.5,10.5-1.98,13.84Z"/>
        <path class="cls-36" d="m492.02,286.42c.45-3,.95-6.1,1.35-9.27.41-3.17.82-6.38,1.18-9.61.33-3.22.65-6.49.89-9.66.27-3.2.4-6.34.54-9.38.26-6.09.31-11.78.19-16.65-.09-4.87-.4-8.93-.6-11.76-.23-2.83-.46-4.44-.46-4.44,0,0-.04,1.62-.12,4.46-.06,2.83-.29,6.87-.53,11.71-.27,4.84-.63,10.48-1.1,16.51-.22,3.01-.52,6.13-.8,9.28-.28,3.19-.62,6.36-.99,9.57-.36,3.21-.72,6.41-1.08,9.57-.37,3.16-.74,6.27-1.09,9.27-.53,4.53-1.03,8.83-1.49,12.74.76-.46,1.51-.95,2.27-1.43.61-3.4,1.23-7.05,1.83-10.91Z"/>
        <path class="cls-25" d="m486.22,314.15c-.3,2.82-.44,4.44-.44,4.44,0,0,.4-1.57,1.01-4.33.58-2.77,1.49-6.72,2.38-11.49.09-.45.18-.94.27-1.4-.21.12-.42.26-.63.39-.44.26-.89.49-1.33.74-.52,4.82-.96,8.85-1.26,11.66Z"/>
        <path class="cls-14" d="m498.46,297.15c-.71,7.96-.99,13.31-.99,13.31,0,0,1.28-5.19,2.69-13.06.21-1.13.42-2.32.63-3.55-.18.13-.35.28-.53.4-.54.41-1.1.8-1.65,1.19-.05.57-.1,1.16-.15,1.7Z"/>
        <path class="cls-13" d="m502.36,283.92c.34-2.48.73-5.03,1.03-7.64.3-2.61.6-5.26.91-7.92.25-2.66.49-5.34.69-7.95.22-2.63.31-5.22.44-7.72.21-5.01.27-9.69.2-13.7-.05-4.01-.23-7.35-.4-9.69-.17-2.34-.33-3.66-.33-3.66,0,0-.39,5.32-.98,13.29-.33,3.97-.71,8.61-1.11,13.58-.44,4.96-.9,10.25-1.47,15.52-.54,5.29-1.07,10.58-1.58,15.54-.28,2.77-.54,5.42-.78,7.93.85-.62,1.69-1.24,2.52-1.86.29-1.84.59-3.74.87-5.71Z"/>
        <path class="cls-37" d="m512.49,279.92c.24-1.69.52-3.42.72-5.19.21-1.83.42-3.69.63-5.55.15-1.87.31-3.74.46-5.58.15-1.85.19-3.66.27-5.42.12-3.51.13-6.8.03-9.61-.15-5.63-.7-9.37-.7-9.37,0,0-.45,3.74-1.01,9.3-.55,5.55-1.29,12.95-2.03,20.35-.18,1.85-.35,3.7-.53,5.53-.2,1.82-.32,3.62-.48,5.36-.09,1.03-.17,2.04-.25,3.03.97-.91,1.9-1.82,2.74-2.68.05-.06.1-.11.15-.16Z"/>
        <path class="cls-38" d="m509.14,289.27c-.36,5.59-.38,9.36-.38,9.36,0,0,1.02-3.62,2.08-9.12.37-1.86.75-3.96,1.11-6.18-.64.75-1.31,1.52-2.03,2.27-.18.2-.39.4-.58.6-.07,1.07-.14,2.1-.2,3.07Z"/>
        <path class="cls-8" d="m397.89,259.82c1.78-22.9,17.27-55.73,17.27-55.73,0,0-8.09,10.4-15.49,32.82-2.83,8.56-4.44,24.02-10.59,30.53-7.79,8.24-23.23,1.78-32.99.36-12.18-1.77-24.37-3.54-36.56-5.31-15.54-2.26-41.68.9-49.27-16.26-5.32-12.04-5.28-32.07-3-44.66,0,0-4.25,23.55-5.63,41.36-1.38,17.81-.42,36.69-.74,40.93-.33,4.24,1.02,7.77,3.3,9.68,2.28,1.9,112.43,21.66,121.08,24.97,12.41,4.75,24.72,7.44,27.06,23.04.9,6.02.29,12.18-.53,18.21,1.68-5.08,3.36-10.23,3.85-15.59,1.31-14.43-5.92-27.41-10.5-40.46-4.53-12.9-8.32-30.1-7.25-43.9Z"/>
        <path class="cls-5" d="m291.47,347.97c1.15,1.38,3.13,1.51,4.44.3,1.3-1.21,1.43-3.31.28-4.68-1.15-1.38-3.13-1.51-4.44-.3-1.3,1.21-1.43,3.31-.28,4.68Z"/>
        <path class="cls-15" d="m179.59,345.55c-3.54-2-12.2-1.88-12.2-1.88l-125.72,9.76,74.66-1.97,66.73,8.02s.06-11.94-3.48-13.93Z"/>
        <path class="cls-3" d="m182.58,378.41l1.23-3.78c1.23-3.78.02-11.24.02-11.24l-48.8-7.51,46.86,11.95.69,10.58Z"/>
        <path class="cls-6" d="m174.08,386.97s-2.51.13-6.91.35c-4.4.26-10.68.55-18.22,1.04-7.53.47-16.33,1.01-25.74,1.59-9.42.59-19.46,1.23-29.5,1.86-5.02.33-10.04.66-14.98.99-4.94.33-9.8.57-14.53.95-4.72.36-9.25.9-13.55,1.33-4.3.43-8.36.78-12.12.96-3.76.17-7.21.21-10.25.09-1.52-.04-2.97-.17-4.27-.28-1.3-.13-2.46-.47-3.46-.9-2.01-.88-3.22-2.27-3.88-3.28-.65-1.03-.82-1.69-.82-1.69,0,0,.13.66.73,1.75.61,1.04,1.76,2.58,3.81,3.59,1.01.5,2.21.91,3.55,1.11,1.33.17,2.74.37,4.29.49,3.08.27,6.55.4,10.34.31,7.58-.14,16.38-.95,25.76-1.65,4.68-.33,9.57-.52,14.51-.81,4.95-.28,9.97-.56,15-.85,10.05-.68,20.09-1.42,29.5-2.14,9.41-.71,18.19-1.56,25.71-2.23,7.52-.67,13.78-1.38,18.17-1.81,4.38-.48,6.88-.76,6.88-.76Z"/>
        <path class="cls-34" d="m14.93,387.59c-.01-.09-.02-.18-.03-.26.02.17.03.26.03.26Z"/>
        <path class="cls-9" d="m15.95,370.68c.82-6.35,1.93-17.17,8.83-19.65,2.94-1.06,8.17-.28,11.5-.58,9.16-.83,18.32-1.65,27.48-2.46,22.9-2.01,45.8-3.97,68.72-5.67,13.25-.98,27.08-2.96,40.39-2.06,6.95.47,14.63,2.63,16.01,11.14,1.05,6.5.21,13.48-1.39,19.77-.87,3.43-4.29,14.92-9,14.84,3.53.06,6.69-2.62,8.4-5.88,3.11-5.93,4.31-14.08,6.27-20.57,2.24-7.39,9.36-6.91,9.36-6.91l54.41,1.79s5.63-4.34,9.89-8.29c4.26-3.96,12.9-13.75,12.9-13.75,0,0-20.78-3.76-43.14-3.39-22.37.37-74.62,7.21-99.3,8.85-20.33,1.34-40.64,3.02-60.95,4.62-10.92.86-21.85,1.73-32.77,2.6-4.41.35-13.83-.31-19.98,1.21-1.89.47-3.48,1.15-4.51,2.13-1.76,1.68-2.37,4.29-2.88,6.73-2.3,10.87-2.89,21.07-1.29,32.18-.11-1.04-.39-5.44,1.06-16.64Zm222.05-33.25s-12.56,1.1-24.75,3.7c-12.19,2.59-16.72,8.64-16.72,8.64l.18-2.92c.18-2.92-2.81-7.03-2.81-7.03,19.16-3.1,44.1-2.39,44.1-2.39Z"/>
        <path class="cls-17" d="m364.91,340.76c-.05-4.07-1.39-6.35-3.16-6.47-1.77-.12-4.76.3-7,2.97-2.24,2.66-13.16,6.93-22.72,8.16-9.56,1.23-17.6-3.07-17.6-3.07,0,0-.89,4.94-2.54,7.65-1.65,2.7-3.88,5.37-3.88,5.37,0,0,26.33.84,37.77-2.14,11.44-2.98,15.38-4.28,15.38-4.28,0,0,3.81-4.12,3.76-8.19Zm-5.09,3.57c.1-.57.2-1.14.17-1.71-.03-.5-.17-.98-.31-1.46-.27-.93-1.2-2.76-.73-3.68.33-.65.97-1.14,1.67-1.16,2.38-.08,1.64,3.48,1.39,4.93-.19,1.11-.6,2.17-1.12,3.15-.45.83-1.38,1.68-1.69,2.54.15-.4.26-.81.36-1.23.1-.45.19-.91.27-1.37Z"/>
        <path class="cls-26" d="m273.16,380.04c1.34-1.52,2.65-3.01,3.89-4.45,4.6-5.28,8.51-9.97,11.7-13.87,1.04-1.28,2-2.47,2.88-3.57.18.02.35.02.53.03-.89,1.21-1.87,2.53-2.97,3.93-3.08,4-6.86,8.83-11.32,14.26-.85,1.04-1.74,2.13-2.64,3.22,3.7-.81,7.42-1.58,11.16-2.32,9.03-11.38,15.71-20.82,18.92-26.81,10.93-20.4,6.63-24.1,2.33-27.8-4.3-3.7-13.8,3.84-23.47,14.09-11.26,11.95-22.98,23.1-35.08,33.66-9.6,8.38-19.45,16.36-29.51,24.1,17.35-5.54,35.23-10.39,53.57-14.47Zm16.71-39.02c2.49-2.31,6.28-2.05,8.47.57,2.19,2.63,1.94,6.63-.54,8.93-2.49,2.31-6.28,2.05-8.47-.57-2.19-2.63-1.94-6.63.54-8.93Z"/>
        <path class="cls-33" d="m253.07,293.14c1.02,3.32,3.59,6.04,6.85,7.14,1.59.44,3.15.77,4.71,1.1.82.17,1.63.35,2.48.54l112.43,24.81c1.86.59,3.86,1.32,5.96,2.18,2.03.83,4.01,1.74,5.89,2.71,1.95,1,3.78,2.09,5.43,3.25,1.75,1.21,3.24,2.52,4.35,3.81.65.81,1.09,1.47,1.38,2.07.29.61.48,1.28.53,1.8.07,1.1.14,2.2.11,3.24-.01,1.02-.05,2.08-.17,3.18-.09,1.05-.25,2.08-.44,3.12-.19,1.04-.42,2.06-.71,3.11-.27,1.02-.59,2.02-.94,3.01-.36.99-.77,1.96-1.15,2.73l-1.15,2.3,1.25,1.99c2.51-.04,5.04-.05,7.56-.06l-1.25-6.3c.24-.72.46-1.45.64-2.17.33-1.18.6-2.37.81-3.57.24-1.32.41-2.51.51-3.58.12-1.07.18-2.24.2-3.65.03-1.16-.04-2.44-.13-3.8-.12-1.26-.48-2.57-1.06-3.79-.48-1.01-1.14-2.01-2.11-3.21-1.46-1.7-3.27-3.3-5.39-4.77-1.83-1.28-3.86-2.49-6-3.59-2.01-1.03-4.12-2.01-6.28-2.89-2.27-.93-4.44-1.72-6.47-2.36l-.46,1.63.33-1.67-112.58-24.85c-.85-.2-1.69-.38-2.54-.55-1.46-.31-2.93-.62-4.28-.99-1.54-.53-2.87-1.94-3.4-3.65-.11-.34-.19-.75-.24-1.2-.03-.49-.02-.99-.01-1.71l.18-13.19c.18-9.32.36-18.97.85-28.43.26-5.46.71-10.31,1.38-14.84.63-4.48,1.42-9.19,2.48-14.81.87-4.59,1.85-9.42,2.99-14.66.16-.63.29-1.29.43-1.94.34-1.67.63-3.11,1.47-4.15.98-1.3,2.59-2.06,4.2-1.99h0c19.09.77,34.95,1.35,49.92,1.83,8.33.26,16.65.5,24.98.67,9.2.2,17.41.17,25.09-.11,9.37-.3,17.6-1.07,25.12-2.32,6.32-1,12.61-2.47,18.7-3.89,1.96-.46,3.93-.92,5.9-1.36,8.12-1.8,16.3-2.61,24.34-2.4.64.02,1.27.08,1.9.11,1.13,4.33,3.66,16.42,2.01,32.86-1.02,10.14-1.59,16.03-1.91,19.41-3.78,1.52-6.61,5.21-6.96,9.75-.49,6.29,3.95,11.81,9.92,12.33,5.97.51,11.2-4.17,11.68-10.46.39-4.98-2.32-9.46-6.41-11.38.8-6.5,1.99-18.47,1.46-28.46-.58-11.05-2.15-19.87-2.87-23.46,5.26.66,10.38,1.74,15.28,3.34,8.03,2.61,15.37,6.43,21.81,11.36,6.49,4.94,12.34,11.33,16.92,18.51,4.43,6.78,7.79,14.68,9.98,23.44,2.08,8.8,2.9,17.48,2.45,25.84-.17,4.21-.71,8.54-1.62,12.92-.37,1.91-.9,3.8-1.46,5.79l-1.24,3.64c-.21.63-.46,1.19-.7,1.75-.17.38-.33.75-.45,1.04-3.94,8.72-10.34,15.35-15.48,20.15-6.32,5.91-13.28,11.06-19.89,15.84-.92.68-1.85,1.35-2.79,2.01-2.52,1.8-5.13,3.66-7.32,5.72-1.28,1.26-2.31,2.5-3.07,3.73l-6.26-8.1,4.95,14.37c.02.09.05.18.08.27.06.19.13.37.2.54l.41,1.19c-.09,5.69-.43,11.28-.86,16.73,1.71.15,3.43.31,5.13.48.45-5.72.8-11.62.88-17.63v-.5s-.07-.22-.07-.22l.4-.32-1.08-1.78-.15-.39s0-.27.26-.88c.44-1.01,1.37-2.22,2.62-3.45,1.9-1.78,4.25-3.46,6.75-5.24.96-.68,1.92-1.37,2.84-2.05,6.72-4.86,13.83-10.12,20.37-16.24,5.5-5.14,12.38-12.27,16.76-21.98.14-.34.28-.67.43-.99.32-.71.62-1.43.88-2.2l1.18-3.42.14-.51c.57-2.02,1.16-4.11,1.56-6.22.97-4.63,1.55-9.28,1.73-13.77.48-8.87-.39-18.1-2.6-27.46-2.35-9.41-5.96-17.88-10.71-25.16-4.9-7.69-11.19-14.55-18.16-19.86-6.9-5.27-14.75-9.36-23.31-12.14-8.04-2.63-16.62-4.07-25.49-4.28-8.43-.22-17.02.63-25.53,2.52-1.99.45-3.96.91-5.94,1.37-6,1.4-12.2,2.85-18.37,3.83-7.33,1.22-15.34,1.97-24.5,2.26-7.59.28-15.7.31-24.81.11-8.31-.17-16.62-.41-24.93-.67-14.95-.48-30.8-1.06-49.88-1.83-3.22-.14-6.45,1.4-8.38,3.96-1.64,2.02-2.12,4.39-2.54,6.48-.12.56-.23,1.12-.39,1.77-1.17,5.39-2.16,10.27-3.04,14.91-1.08,5.71-1.88,10.5-2.52,15.06-.69,4.71-1.16,9.74-1.43,15.37-.49,9.54-.68,19.23-.85,28.6l-.19,13.45c0,.62-.01,1.27.04,2.01.1.98.26,1.78.48,2.47Zm204.37-42.99c.22-2.89-1.14-4.78-2.3-5.85l.18.02s.06-.36.15-1.01c2.42.52,3.99,2.75,4.16,7.04.22,5.32-6.18,6.76-6.18,6.76,0,0,3.61-2.01,3.99-6.95Z"/>
        <path class="cls-24" d="m520.05,374.97c3.5.63,6.98,1.28,10.45,1.96-2.48-2.71-3.93-6.45-3.63-10.51.56-7.5,6.78-13.09,13.88-12.5,7.1.59,12.41,7.15,11.85,14.65-.39,5.18-3.51,9.4-7.72,11.35,5.26,1.16,10.48,2.39,15.66,3.68,3.65-7.61.85-18.34-.91-25.97-2.21-9.6-2.61-20.97-7.7-29.45-5.91-9.84-18.98-16.61-26.46-24.42-5.22,7.84-11.15,14.26-16.86,19.39,1.28,11.03,2.81,21.66,5.04,30.45,1.9,7.49,4.22,14.92,6.39,21.36Z"/>
        <g>
          <path class="cls-18" d="m514.06,373.93c-.58-1.91-1.16-3.82-1.76-5.73-.98,1.31-2.21,2.96-3.61,4.85,1.79.29,3.58.58,5.37.88Z"/>
          <path class="cls-39" d="m496.35,371.19c2.34.33,4.67.68,7,1.03,3.36-4.8,5.84-8.31,7.05-10.01-1.15-3.62-2.29-7.24-3.38-10.86,1.26,4.2-5.15,12.89-10.67,19.84Z"/>
        </g>
        <g>
          <path class="cls-29" d="m585.14,390.28c1.5.44,3,.88,4.49,1.33l-8.67-11.41c-.72-.95-1.71-.14-1.1.91l5.28,9.17Z"/>
          <path class="cls-7" d="m631.9,406.1c3.35,1.29,6.68,2.62,9.98,3.96,9.82-7,18.55-15.32,25.72-27.29-2.67,4.69-5.33,9.38-8,14.07-2.43,4.28-4.95,8.66-8.68,11.71-1.44,1.18-2.92,2.3-4.4,3.4,5.83,2.43,11.58,4.93,17.26,7.51,38.19-25.04,93.76-62.21,124-83.67,38.04-26.98,55.56-41.66,55.56-41.66,0,0,9.35-7.72,9.9-16.64.54-8.92-22.22-37.15-27.73-43.89-5.51-6.74-16.15-15.34-16.15-15.34l26.08,46.66s-1.1.81-3.09,2.27l-15.85-27.49c-.05-.09-.11-.17-.17-.26l-8.8-11.57c-.72-.95-1.71-.14-1.1.91l23.26,40.35c-.96.7-2.02,1.48-3.18,2.33l-16.07-27.88c-.05-.09-.11-.17-.17-.26l-8.8-11.57c-.72-.95-1.71-.14-1.1.91l23.48,40.73c-1.01.74-2.07,1.51-3.18,2.32l-16.29-28.25c-.05-.09-.11-.17-.17-.26l-8.8-11.57c-.72-.95-1.71-.14-1.1.91l23.69,41.1c-1.03.75-2.09,1.52-3.18,2.32l-16.5-28.63c-.05-.09-.11-.17-.17-.26l-8.8-11.57c-.72-.95-1.71-.14-1.1.91l23.9,41.47c-1.04.76-2.1,1.53-3.18,2.31l-16.71-28.99c-.05-.09-.11-.17-.17-.26l-8.8-11.57c-.72-.95-1.71-.14-1.1.91l24.11,41.84c-1.05.76-2.11,1.53-3.18,2.31l-16.92-29.35c-.05-.09-.11-.17-.17-.26l-8.79-11.57c-.72-.95-1.71-.14-1.1.91l24.32,42.19c-1.05.76-2.11,1.53-3.19,2.31l-17.12-29.7c-.05-.09-.11-.17-.17-.26l-8.8-11.57c-.72-.95-1.71-.14-1.1.91l24.52,42.54c-1.06.76-2.12,1.53-3.19,2.3l-17.32-30.05c-.05-.09-.11-.17-.17-.26l-8.79-11.57c-.72-.95-1.71-.14-1.1.91l24.72,42.88c-1.06.76-2.12,1.53-3.19,2.3l-17.52-30.39c-.05-.09-.11-.17-.17-.26l-8.8-11.57c-.72-.95-1.71-.14-1.1.91l24.91,43.22c-1.06.76-2.13,1.53-3.19,2.3l-17.71-30.72c-.05-.09-.11-.17-.17-.26l-8.8-11.57c-.72-.95-1.71-.14-1.1.91l25.1,43.54c-1.07.76-2.13,1.53-3.2,2.29l-17.89-31.04c-.05-.09-.11-.17-.17-.26l-8.8-11.57c-.72-.95-1.71-.14-1.1.91l25.28,43.86c-1.07.76-2.14,1.52-3.2,2.28l-18.07-31.35c-.05-.09-.11-.18-.17-.26l-8.8-11.57c-.72-.95-1.71-.14-1.1.91l25.46,44.16c-1.07.76-2.14,1.52-3.2,2.28l-18.24-31.65c-.05-.09-.11-.17-.17-.26l-8.8-11.57c-.72-.95-1.71-.14-1.1.91l25.62,44.46c-1.08.76-2.15,1.52-3.21,2.27l-18.4-31.93c-.05-.09-.11-.18-.17-.26l-8.8-11.57c-.72-.95-1.71-.14-1.1.91l25.78,44.73c-1.08.76-2.16,1.52-3.22,2.26l-18.56-32.19c-.05-.09-.11-.17-.17-.26l-8.8-11.57c-.72-.95-1.71-.14-1.1.91l25.93,44.99c-1.09.76-2.16,1.51-3.22,2.25l-18.7-32.44c-.05-.09-.11-.17-.17-.26l-8.8-11.57c-.72-.95-1.71-.14-1.1.91l26.06,45.22c-1.1.76-2.18,1.5-3.23,2.23l-18.82-32.65c-.05-.09-.11-.18-.17-.26l-8.8-11.57c-.72-.95-1.71-.14-1.1.91l26.18,45.42c-1.11.76-2.2,1.49-3.25,2.21l-18.92-32.83c-.05-.09-.11-.17-.17-.26l-8.8-11.57c-.72-.95-1.71-.14-1.1.91l26.26,45.57c-1.14.76-2.23,1.48-3.27,2.17l-18.99-32.94c-.05-.09-.11-.17-.17-.26l-8.79-11.57c-.72-.95-1.71-.14-1.1.91l26.31,45.64c-1.2.77-2.31,1.47-3.31,2.09l-18.98-32.93c-.05-.09-.11-.17-.17-.26l-8.8-11.57c-.72-.95-1.71-.14-1.1.91l26.24,45.53c-1.15.68-2.27,1.33-3.39,1.96l-18.85-32.7c-.05-.09-.11-.17-.17-.26l-8.8-11.57c-.72-.95-1.71-.14-1.1.91l26.05,45.2c-1.18.64-2.33,1.26-3.45,1.85l-18.59-32.25c-.05-.09-.11-.17-.17-.26l-8.8-11.57c-.72-.95-1.71-.14-1.1.91l25.74,44.66c-1.21.61-2.38,1.18-3.53,1.72l-18.2-31.58c-.05-.09-.11-.18-.17-.26l-8.8-11.57c-.72-.95-1.71-.14-1.1.91l25.29,43.87c-1.25.57-2.46,1.1-3.6,1.58l-17.67-30.66c-.05-.09-.11-.17-.17-.26l-8.8-11.57c-.72-.95-1.71-.14-1.1.91l24.69,42.83c-1.33.53-2.56,1-3.7,1.42l-16.98-29.46c-.05-.09-.11-.18-.17-.26l-8.8-11.57c-.72-.95-1.71-.14-1.1.91l23.91,41.47c-1.56.53-2.85.92-3.82,1.21l-16.07-27.88c-.05-.09-.11-.17-.17-.26l-8.8-11.57c-.72-.95-1.71-.14-1.1.91l22.74,39.45c-1.01.08-2.53.28-4.1.73l-14.63-25.38c-.05-.09-.11-.17-.17-.26l-8.8-11.57c-.72-.95-1.71-.14-1.1.91l21.66,37.57c-.91.55-1.7,1.24-2.23,2.13-.16.27-.33.59-.52.94l-15.15-26.28c-.05-.09-.11-.18-.17-.26l-8.8-11.57c-.72-.95-1.71-.14-1.1.91l23.46,40.71c-.52,1.03-1.11,2.17-1.79,3.4l-16.84-29.21c-.05-.09-.11-.18-.17-.26l-8.79-11.57c-.72-.95-1.71-.14-1.1.91l25,43.37c-.61.98-1.27,1.99-2,3.04l-18.17-31.52c-.05-.09-.11-.18-.17-.26l-8.8-11.57c-.72-.95-1.71-.14-1.1.91l26.12,45.31c-.68.88-1.42,1.78-2.2,2.69l-19.09-33.11c-.05-.09-.11-.17-.17-.26l-8.8-11.57c-.72-.95-1.71-.14-1.1.91l26.85,46.58c-.75.79-1.54,1.59-2.37,2.4l-19.65-34.09c-.05-.09-.11-.18-.17-.26l-8.79-11.57c-.72-.95-1.71-.14-1.1.91l27.25,47.28c-.81.71-1.64,1.43-2.51,2.14l-19.9-34.53c-.05-.09-.11-.18-.17-.26l-8.8-11.57c-.72-.95-1.71-.14-1.1.91l27.36,47.47c-.13.1-.25.2-.38.29-.63.46-1.4,1.01-2.28,1.6l-19.87-34.47c-.05-.09-.11-.18-.17-.26l-8.8-11.57c-.72-.95-1.71-.14-1.1.91l27.2,47.2c-.85.55-1.76,1.14-2.74,1.76l-19.64-34.07c-.05-.09-.11-.17-.17-.26l-8.8-11.57c-.72-.95-1.71-.14-1.1.91l25.87,44.89Zm213.25-126.18c.23.35.19.83.07,1.24-.39,1.38-2.17,3.26-3.71,2.62-.05-.02-.09-.04-.13-.06-2.67-1.33,2.29-6.08,3.77-3.8Zm-13.02,10.28c10.31-7.47-2.22,7.42-33.5,29.22-31.28,21.79-85.92,59.43-85.92,59.43,0,0,109.11-81.17,119.42-88.65Z"/>
          <path class="cls-31" d="m594.25,393.03c1.54.48,3.08.96,4.61,1.45l-3.71-6.44c-.05-.09-.11-.18-.17-.26l-8.8-11.57c-.72-.95-1.71-.14-1.1.91l9.16,15.9Z"/>
          <path class="cls-32" d="m576.13,387.71c.96.27,1.92.52,2.88.79l-3.29-4.32c-.72-.95-1.71-.14-1.1.91l1.51,2.62Z"/>
          <path class="cls-16" d="m622.29,402.49c1.61.59,3.21,1.2,4.81,1.8l-16.25-28.19c-.05-.09-.11-.18-.17-.26l-8.79-11.57c-.72-.95-1.71-.14-1.1.91l21.5,37.3Z"/>
          <path class="cls-12" d="m603.48,395.98c1.56.51,3.12,1.03,4.68,1.56l-7.76-13.47c-.05-.09-.11-.18-.17-.26l-8.8-11.57c-.72-.95-1.71-.14-1.1.91l13.16,22.82Z"/>
          <path class="cls-30" d="m612.82,399.12c1.59.55,3.16,1.11,4.74,1.67l-11.94-20.72c-.05-.09-.11-.18-.17-.26l-8.8-11.57c-.72-.95-1.71-.14-1.1.91l17.27,29.95Z"/>
        </g>
        <path class="cls-21" d="m412.42,371.71c108.89,0,209.53,24.82,291.36,63.84-79.93-44.1-181.18-72.69-291.36-72.69s-211.43,28.59-291.36,72.69c81.83-39.03,182.47-63.84,291.36-63.84Z"/>
        <g>
          <path class="cls-2" d="m11.45,471.01c4.36,10.46,8.73,20.91,13.09,31.37,13.83-5.66,27.73-11.06,41.76-16.22-3.84-10.66-7.68-21.32-11.52-31.98,4.71-1.7,7.07-2.53,11.8-4.16,8.84,25.6,17.68,51.19,26.52,76.79-4.32,1.49-6.48,2.25-10.78,3.8-4.3-11.94-8.61-23.89-12.91-35.83-13.89,5.11-27.64,10.45-41.34,16.06,4.89,11.72,9.78,23.44,14.66,35.15-4.19,1.75-6.29,2.64-10.46,4.45-10.75-24.85-21.51-49.71-32.26-74.56,4.57-1.98,6.86-2.95,11.45-4.87Z"/>
          <path class="cls-2" d="m158.58,476.46c4.18,16.59-6.16,33.66-22.51,38.12-15.34,4.19-32.95-4.5-37.98-19.72-5.52-16.67,6.11-34.22,22.15-39.19,16.14-5,34.14,4.09,38.34,20.79Zm-49.25,14.43c3.32,10.58,13.69,19.19,25.03,15.9,11.4-3.3,15.56-16.22,12.67-27-2.95-10.99-12.91-19.77-24.87-16.4-12.21,3.45-16.34,16.33-12.84,27.5Z"/>
          <path class="cls-2" d="m170.6,462.78c-1.55-6.69-3.02-12.42-4.65-17.61,4.13-.96,6.2-1.43,10.33-2.34,1.15,4.44,1.72,6.66,2.86,11.09.21-.05.32-.07.53-.12,1.24-8.29,7.36-14.67,15.32-16.25,1.35-.27,2.32-.33,3.44-.31.76,3.93,1.15,5.89,1.91,9.82-1.25,0-2.47.11-4.07.43-8.28,1.65-12.95,8.47-12.83,16.59.05,1.47.14,3.18.53,4.94,2.21,10.13,4.42,20.26,6.63,30.38-4.38.96-6.57,1.45-10.94,2.46-3.02-13.03-6.04-26.07-9.07-39.1Z"/>
          <path class="cls-2" d="m254.25,488.02c-.77-2.86-1.15-4.29-1.92-7.15-.15.02-.23.03-.38.05-2.82,5.03-8.95,9.93-17.54,11.47-9.53,1.71-19.89-3.19-21.8-13.17-3.57-18.69,20.45-25.94,34.48-27.68-.07-.48-.1-.72-.17-1.19-.68-4.77-3.4-13.25-16.72-11.12-6.05.97-12.09,3.71-16.16,7.14-1.56-2.56-2.35-3.84-3.92-6.4,4.82-4.06,12.34-7.45,20.61-8.76,14.89-2.35,26.14,5.17,28.08,20.08,1.12,8.65,1.68,12.98,2.81,21.64.65,5.02,1.55,9.89,2.82,13.74-4.07.52-6.11.8-10.18,1.37Zm-5.86-29.24c-9.5.8-26.26,5.28-24.66,17.2.88,6.54,6.58,9.13,12.34,8.2,8.05-1.3,12.47-6.79,13.58-11.94.24-1.13.32-2.36.17-3.43l-1.43-10.02Z"/>
          <path class="cls-2" d="m353.69,444.19c-.94-11.66-1.98-23.34-2.19-35.03-.17,0-.25,0-.42.01-3.22,10.51-6.92,20.85-10.62,31.2-4.75,13.31-9.34,26.67-13.76,40.09-3.38.19-5.07.29-8.45.51-5.5-12.6-11.2-25.12-17.08-37.54-4.67-10.07-9.42-20.14-13.34-30.54-.11.01-.17.02-.28.03.78,11.96,1.2,23.95,1.61,35.93.32,11.63.65,23.27,1.01,34.9-4.24.42-6.35.64-10.59,1.1-.95-27.15-1.73-54.29-2.36-81.45,6.2-.64,9.3-.94,15.51-1.47,6.42,12.58,12.69,25.22,18.81,37.94,4.04,8.63,7.8,17.65,10.74,26.73.16,0,.23-.01.39-.02,1.93-9.37,4.76-18.8,7.92-27.82,4.81-13.37,9.78-26.66,14.91-39.91,6.22-.19,9.33-.26,15.56-.34,2.31,27.05,4.48,54.1,6.51,81.18-4.35.03-6.53.06-10.89.15-.97-11.88-1.96-23.75-2.99-35.62Z"/>
          <path class="cls-2" d="m419.42,480.82c-.2-2.96-.31-4.43-.52-7.39-.15,0-.23-.01-.39-.02-3.72,4.4-10.66,8.04-19.36,7.91-9.68-.15-18.85-6.95-18.81-17.1.07-19.01,24.92-21.55,39.02-20.58.02-.48.04-.72.06-1.2.24-4.82-.81-13.66-14.25-14.11-6.11-.21-12.54,1.34-17.17,3.92-1.04-2.81-1.56-4.22-2.62-7.03,5.49-3.07,13.49-4.96,21.84-4.66,15.05.54,24.62,10.09,23.67,25.07-.55,8.71-.83,13.06-1.38,21.77-.32,5.05-.37,10,.14,14.02-4.09-.26-6.14-.38-10.23-.6Zm-.16-29.82c-9.47-1.03-26.71.17-27.42,12.17-.39,6.59,4.7,10.22,10.51,10.41,8.13.26,13.5-4.28,15.58-9.13.45-1.06.77-2.25.82-3.34.21-4.04.31-6.07.51-10.11Z"/>
          <path class="cls-2" d="m450.16,442.7c.58-6.85.95-12.74.99-18.18,4.2.35,6.3.54,10.5.94-.27,4.58-.41,6.86-.69,11.44.22.02.32.03.54.05,3.71-7.51,11.46-11.71,19.5-10.77,1.36.16,2.3.39,3.36.76-.48,3.97-.72,5.96-1.2,9.93-1.18-.38-2.38-.65-4-.84-8.36-.97-14.88,4.09-17.25,11.85-.41,1.41-.84,3.07-1.01,4.87-1.01,10.32-2.02,20.63-3.02,30.95-4.44-.43-6.66-.64-11.11-1.01,1.13-13.33,2.26-26.66,3.39-40Z"/>
          <path class="cls-2" d="m531.36,491.9c-3.18.88-10.01,1.53-18.19.25-16.2-2.53-28.9-17.51-26.82-33.98,2.32-18.34,22.05-28.53,39.22-25.54,6.99,1.22,12.99,3.85,15.96,5.87-1.68,3.02-2.51,4.54-4.17,7.57-2.55-1.94-7-3.86-13.19-5.12-12.43-2.52-24.11,6.06-26.07,18.31-1.96,12.25,6.36,22.98,18.47,24.9,6.35,1.01,10.87.28,14.31-.44.19,3.27.29,4.91.47,8.18Z"/>
          <path class="cls-2" d="m577.68,504.03c.34-2.94.52-4.42.85-7.36-.15-.04-.23-.06-.38-.09-4.49,3.63-12.03,5.91-20.6,4.17-9.49-1.93-17.34-10.3-15.42-20.3,3.6-18.72,28.67-16.53,42.36-12.97.11-.47.17-.7.28-1.17,1.13-4.69,1.72-13.58-11.48-16.53-6-1.34-12.63-1.02-17.69.66-.51-2.96-.76-4.44-1.29-7.39,5.98-2,14.23-2.37,22.43-.52,14.71,3.32,22.49,14.45,18.78,29.05-2.15,8.46-3.23,12.68-5.39,21.14-1.25,4.91-2.22,9.76-2.45,13.81-4-1.02-6-1.52-10.01-2.5Zm5.35-29.34c-9.13-2.77-26.42-4.83-29.35,6.86-1.6,6.4,2.75,10.91,8.46,12.18,7.98,1.77,14.14-1.7,17.09-6.07.64-.96,1.18-2.07,1.43-3.13.95-3.94,1.42-5.91,2.37-9.84Z"/>
          <path class="cls-2" d="m684.11,446.24c-7.7,22.21-15.39,44.42-23.09,66.62-1.7,4.9-3.51,10.52-4.44,14.41-3.88-1.35-5.82-2.01-9.71-3.31,1.09-3.91,1.63-5.86,2.71-9.77-.1-.03-.15-.05-.25-.08-5.42,5.06-14.2,7.34-23.96,4.37-14.91-4.53-21.6-21.99-17.9-36.03,4.11-15.59,20.89-26.88,37.05-21.9,9.78,3.02,15.08,9.21,16.46,14.62.1.03.16.05.26.09,3.66-11.02,7.31-22.04,10.97-33.06,4.76,1.58,7.14,2.39,11.89,4.03Zm-27.95,44.36c.42-1.26.86-3.02.89-4.4.45-6.96-4.14-14.29-12.74-17-11.91-3.75-22.14,5.03-25.26,15.99-2.96,10.4.59,22.65,11.94,26.07,7.32,2.21,15.52.01,20.03-6.87.83-1.25,1.42-2.58,1.95-4.18,1.28-3.84,1.91-5.77,3.19-9.61Z"/>
          <path class="cls-2" d="m706.43,546.34c.8-2.85,1.2-4.28,1.99-7.14-.15-.06-.22-.09-.36-.15-5.04,2.86-12.93,3.9-21.21.8-9.09-3.4-15.73-12.91-12.25-22.54,6.52-18.01,31.31-11.68,44.28-6.01.19-.44.28-.67.46-1.11,1.85-4.45,3.8-13.15-8.92-18.19-5.78-2.29-12.45-3.04-17.76-2.19-.05-3-.08-4.51-.14-7.51,6.28-1.01,14.57-.06,22.47,3.09,14.05,5.6,20.29,17.79,14.28,31.76-3.46,8.01-5.18,12.02-8.64,20.03-2,4.65-3.72,9.29-4.58,13.25-3.84-1.66-5.76-2.48-9.62-4.09Zm9.87-28.14c-8.6-4.17-25.61-9.08-30.36,2.05-2.59,6.06,1.06,11.23,6.56,13.4,7.7,3.04,14.38.6,18-3.25.79-.85,1.49-1.86,1.91-2.86,1.56-3.74,2.33-5.61,3.89-9.35Z"/>
        </g>
      </g>
      <g class="cls-20">
        <ellipse class="cls-11" cx="408.68" cy="688.76" rx="367.69" ry="185.94"/>
      </g>
      <path class="cls-4" d="m420.5,684.15l86.15-90.91c1.34-1.41,3.51-1.41,4.84,0l6.39,6.75c1.34,1.41,1.34,3.7,0,5.11l-86.15,90.91c-1.34,1.41-3.51,1.41-4.84,0l-6.39-6.75c-1.34-1.41-1.34-3.7,0-5.11Z"/>
      <path class="cls-4" d="m421.56,699.58l-197.56-74.07c-1.78-.67-2.71-2.73-2.08-4.62l3.03-8.99c.63-1.88,2.59-2.86,4.37-2.2l197.56,74.07c1.78.67,2.71,2.73,2.08,4.62l-3.03,8.99c-.63,1.88-2.59,2.86-4.37,2.2Z"/>
      <rect class="cls-4" x="406.92" y="484.73" width="8.32" height="42.21" rx="1.44" ry="1.44"/>
      <path class="cls-4" d="m243.27,549.82l-4.91,1.03c-.9.19-1.77-.43-1.95-1.37l-6.13-32.47c-.18-.95.4-1.87,1.3-2.05l4.91-1.03c.9-.19,1.77.43,1.95,1.37l6.13,32.47c.18.95-.4,1.87-1.3,2.05Z"/>
      <path class="cls-4" d="m74.19,662.09l-1.62,5c-.3.91-1.24,1.4-2.1,1.09l-29.69-10.7c-.86-.31-1.33-1.3-1.03-2.22l1.62-5c.3-.91,1.24-1.4,2.1-1.09l29.69,10.7c.86.31,1.33,1.3,1.03,2.22Z"/>
      <path class="cls-4" d="m596.64,554.71l-4.7-1.82c-.86-.33-1.3-1.34-.98-2.24l10.35-29.72c.32-.91,1.27-1.37,2.12-1.04l4.7,1.82c.86.33,1.3,1.34.98,2.24l-10.35,29.72c-.32.91-1.27,1.37-2.12,1.04Z"/>
      <path class="cls-4" d="m744.91,666.98l-1.42-5.07c-.26-.93.24-1.9,1.12-2.17l28.78-8.96c.88-.27,1.8.26,2.06,1.18l1.42,5.07c.26.93-.24,1.9-1.12,2.17l-28.78,8.96c-.88.27-1.8-.26-2.06-1.18Z"/>
      <path class="cls-4" d="m451.27,513.19l-4.36-.31c-.91-.06-1.6-.9-1.54-1.86l1.39-22.12c.06-.96.85-1.69,1.76-1.63l4.36.31c.91.06,1.6.9,1.54,1.86l-1.39,22.12c-.06.96-.85,1.69-1.76,1.63Z"/>
      <rect class="cls-4" x="371.99" y="486.39" width="7.68" height="25.66" rx="1.44" ry="1.44"/>
      <path class="cls-4" d="m342.83,515.4l-4.34.55c-.91.12-1.73-.57-1.84-1.52l-2.53-22.01c-.11-.96.54-1.83,1.44-1.94l4.34-.55c.91-.12,1.73.57,1.84,1.52l2.53,22.01c.11.96-.54,1.83-1.44,1.94Z"/>
      <path class="cls-4" d="m310.47,520.42l-4.3.79c-.9.17-1.76-.47-1.91-1.42l-3.6-21.84c-.16-.95.45-1.85,1.35-2.02l4.3-.79c.9-.17,1.76.47,1.91,1.42l3.6,21.84c.16.95-.45,1.85-1.35,2.02Z"/>
      <path class="cls-4" d="m276.34,524.25l-4.28.92c-.9.19-1.77-.42-1.95-1.36l-4.21-21.72c-.18-.95.39-1.87,1.29-2.06l4.28-.92c.9-.19,1.77.42,1.95,1.36l4.21,21.72c.18.95-.39,1.87-1.29,2.06Z"/>
      <path class="cls-4" d="m201.78,547.54l-4.06,1.69c-.85.35-1.81-.09-2.15-.98l-7.71-20.62c-.34-.9.08-1.91.93-2.27l4.06-1.69c.85-.35,1.81.09,2.15.98l7.71,20.62c.34.9-.08,1.91-.93,2.27Z"/>
      <path class="cls-4" d="m162.13,563.71l-4,1.87c-.84.39-1.81,0-2.18-.89l-8.5-20.27c-.37-.88,0-1.91.84-2.3l4-1.87c.84-.39,1.81,0,2.18.89l8.5,20.27c.37.88,0,1.91-.84,2.3Z"/>
      <path class="cls-4" d="m102.71,570.19l3.43-2.86c.72-.6,1.76-.47,2.32.29l13.02,17.39c.57.76.44,1.86-.27,2.45l-3.43,2.86c-.72.6-1.76.47-2.32-.29l-13.02-17.39c-.57-.76-.44-1.86.27-2.45Z"/>
      <path class="cls-4" d="m88.18,616.43l-2.57,3.73c-.54.78-1.57.95-2.31.38l-16.97-13.06c-.74-.57-.9-1.66-.36-2.44l2.57-3.73c.54-.78,1.57-.95,2.31-.38l16.97,13.06c.74.57.9,1.66.36,2.44Z"/>
      <path class="cls-4" d="m487.83,516.04l-4.34-.55c-.91-.11-1.56-.98-1.45-1.94l2.49-22.01c.11-.96.93-1.64,1.84-1.53l4.34.55c.91.11,1.56.98,1.45,1.94l-2.49,22.01c-.11.96-.93,1.64-1.84,1.53Z"/>
      <path class="cls-4" d="m523.72,521.71l-4.31-.74c-.9-.16-1.51-1.05-1.37-2l3.38-21.88c.15-.95,1-1.6,1.9-1.44l4.31.74c.9.16,1.51,1.05,1.37,2l-3.38,21.88c-.15.95-1,1.6-1.9,1.44Z"/>
      <path class="cls-4" d="m560.8,528.96l-4.26-1.03c-.89-.22-1.45-1.15-1.24-2.09l4.68-21.61c.2-.94,1.09-1.53,1.98-1.31l4.26,1.03c.89.22,1.45,1.15,1.24,2.09l-4.68,21.61c-.2.94-1.09,1.53-1.98,1.31Z"/>
      <path class="cls-4" d="m737.69,624.85l-1.95-4.13c-.41-.86-.08-1.91.74-2.34l18.8-9.89c.82-.43,1.81-.08,2.22.78l1.95,4.13c.41.86.08,1.91-.74,2.34l-18.8,9.89c-.82.43-1.81.08-2.22-.78Z"/>
      <path class="cls-4" d="m642.34,555.41l-4.07-1.67c-.85-.35-1.27-1.36-.94-2.26l7.6-20.67c.33-.9,1.29-1.35,2.14-1l4.07,1.67c.85.35,1.27,1.36.94,2.26l-7.6,20.67c-.33.9-1.29,1.35-2.14,1Z"/>
      <path class="cls-4" d="m673.24,572.06l-3.61-2.6c-.75-.54-.95-1.63-.43-2.43l11.86-18.3c.52-.8,1.55-1,2.3-.46l3.61,2.6c.75.54.95,1.63.43,2.43l-11.86,18.3c-.52.8-1.55,1-2.3.46Z"/>
      <path class="cls-4" d="m709.16,594.51l-3.09-3.26c-.65-.68-.65-1.79,0-2.47l14.85-15.68c.65-.68,1.69-.68,2.34,0l3.09,3.26c.65.68.65,1.79,0,2.47l-14.85,15.68c-.65.68-1.69.68-2.34,0Z"/>
    </g>
  </g>
</svg>